<?xml version="1.0" encoding="UTF-8" standalone="no"?><!DOCTYPE svg PUBLIC "-//W3C//DTD SVG 1.1//EN" "http://www.w3.org/Graphics/SVG/1.1/DTD/svg11.dtd"><svg width="100%" height="100%" viewBox="0 0 204 204" version="1.1" xmlns="http://www.w3.org/2000/svg" xmlns:xlink="http://www.w3.org/1999/xlink" xml:space="preserve" xmlns:serif="http://www.serif.com/" style="fill-rule:evenodd;clip-rule:evenodd;stroke-linejoin:round;stroke-miterlimit:2;"><path d="M1.575,101.575c0,-100 0,-100 100,-100c100,0 100,0 100,100c0,100 0,100 -100,100c-100,0 -100,0 -100,-100" style="fill-rule:nonzero;stroke:#000;stroke-width:3.15px;"/><path d="M88.112,30.285c-0.483,0.076 -0.871,0.786 -1.382,2.31c-0.994,2.934 -1.231,7.146 -2.537,46.504c-0.691,20.777 -2.187,39.386 -3.484,43.201c-1.675,4.922 -4.467,3.388 -11.481,-6.342c-3.597,-4.998 -7.686,-10.1 -9.068,-11.312c-2.386,-2.101 -2.651,-2.12 -5.074,-0.34c-1.41,1.031 -3.237,3.72 -4.07,5.991c-2.149,5.841 -5.102,9.002 -9.2,9.863c-1.95,0.417 -12.022,0.095 -22.377,-0.7c0,0 -14.973,-1.707 -17.966,-1.372c-1.119,0.125 -1.015,2.912 0.01,3.379c1.57,0.714 9.409,0.908 9.409,0.908c5.651,0.549 15.694,1.004 22.329,1.004c14.066,-0 16.47,-1.108 19.594,-9.011c1.06,-2.698 2.366,-5.216 2.915,-5.585c2.073,-1.439 4.95,0.946 10.847,8.992c3.361,4.582 7.223,9.153 8.576,10.147c3.304,2.423 6.418,1.165 8.065,-3.246c1.675,-4.497 3.341,-23.286 4.032,-45.577c0.606,-19.272 1.117,-23.759 2.471,-21.316c0.785,1.419 1.552,9.37 2.508,25.803c0.189,3.388 1.079,15.239 1.959,26.342c2.973,37.257 4.033,43.901 6.872,42.851c1.496,-0.559 3.465,-9.788 3.597,-16.821c0.048,-2.953 0.739,-7.118 1.543,-9.257c1.647,-4.411 2.442,-4.581 12.182,-2.574c8.832,1.826 10.696,0.681 14.502,-8.879c5.092,-12.826 5.291,-13.138 8.235,-13.526c2.29,-0.294 3.653,0.757 7.951,6.171c15.807,19.849 17.587,20.635 26.153,11.558c2.915,-3.077 5.736,-5.604 6.266,-5.604c0.53,-0 3.332,2.272 6.238,5.045c3.947,3.597 7.127,5.064 11.529,5.585c1.272,-0 2.319,-1.047 2.319,-2.319c0,-1.272 -1.047,-2.319 -2.319,-2.319c-4.193,1.637 -8.159,-2.272 -10.317,-4.307c-7.1,-6.787 -9.447,-6.711 -15.429,0.549c-6.749,8.216 -7.071,8.093 -19.689,-7.667c-12.949,-16.177 -15.949,-15.969 -22.007,1.514c-1.278,3.692 -3.389,7.951 -4.667,9.466c-2.262,2.669 -2.527,2.716 -8.168,1.41c-8.548,-1.988 -11.842,-1.723 -14.189,1.089c-1.114,1.338 -1.994,2.855 -2.603,4.486c-0.739,2.594 -2.149,2.632 -2.84,0.086c-0.795,-2.954 -2.489,-19.783 -3.067,-30.555c-0.729,-13.65 -4.411,-57.172 -5.149,-60.769c-0.341,-1.685 -1.23,-3.635 -1.988,-4.335c-0.407,-0.379 -0.738,-0.568 -1.031,-0.521Z" style="fill:#fff;fill-rule:nonzero;"/></svg>