<?xml version="1.0" encoding="UTF-8" standalone="no"?><!DOCTYPE svg PUBLIC "-//W3C//DTD SVG 1.1//EN" "http://www.w3.org/Graphics/SVG/1.1/DTD/svg11.dtd"><svg width="100%" height="100%" viewBox="0 0 204 204" version="1.1" xmlns="http://www.w3.org/2000/svg" xmlns:xlink="http://www.w3.org/1999/xlink" xml:space="preserve" xmlns:serif="http://www.serif.com/" style="fill-rule:evenodd;clip-rule:evenodd;stroke-linejoin:round;stroke-miterlimit:2;"><path d="M1.575,101.575c-0,-100 -0,-100 100,-100c100,-0 100,-0 100,100c0,100 0,100 -100,100c-100,0 -100,0 -100,-100" style="fill:#fff;fill-rule:nonzero;stroke:#000;stroke-width:3.15px;"/><path d="M174.575,117.575c-0,-5.519 -4.481,-10 -10,-10l-48,-0c-5.519,-0 -10,4.481 -10,10l-0,48c-0,5.519 4.481,10 10,10l48,0c5.519,0 10,-4.481 10,-10l-0,-48Z"/><path d="M46.575,61.575l28,-0m-14,-14l-0,28m66,-14l28,-0m-106,92l24,-24m-24,0l24,24" style="fill:none;fill-rule:nonzero;stroke:#000;stroke-width:8px;stroke-linejoin:miter;stroke-miterlimit:4;"/><path d="M126.575,133.575l28,0m-28,16l28,0" style="fill:none;fill-rule:nonzero;stroke:#fff;stroke-width:8px;stroke-linejoin:miter;stroke-miterlimit:4;"/></svg>