<?xml version="1.0" encoding="UTF-8" standalone="no"?><!DOCTYPE svg PUBLIC "-//W3C//DTD SVG 1.1//EN" "http://www.w3.org/Graphics/SVG/1.1/DTD/svg11.dtd"><svg width="100%" height="100%" viewBox="0 0 204 204" version="1.1" xmlns="http://www.w3.org/2000/svg" xmlns:xlink="http://www.w3.org/1999/xlink" xml:space="preserve" xmlns:serif="http://www.serif.com/" style="fill-rule:evenodd;clip-rule:evenodd;stroke-linejoin:round;stroke-miterlimit:2;"><path d="M1.575,101.575c0,-100 0,-100 100,-100c100,0 100,0 100,100c0,100 0,100 -100,100c-100,0 -100,0 -100,-100" style="fill:#fff;fill-rule:nonzero;stroke:#000;stroke-width:3.15px;"/><path d="M101.565,41.585c-32.907,0.006 -59.983,25.11 -59.991,55.62c0.017,14.053 5.777,27.591 16.112,37.871l-0.034,-0.013c6,7.477 18.605,8.578 6.881,22.232c-3.426,4.2 -2.275,4.715 1.837,4.019c12.34,-3.059 10.964,-9.699 21.698,-9.957c4.426,0.967 8.956,1.464 13.503,1.482c32.917,-0 60.003,-25.114 60.003,-55.634c0,-30.519 -27.086,-55.633 -60.003,-55.633l-0.006,0.013Z" style="fill-rule:nonzero;"/></svg>