<?xml version="1.0" encoding="UTF-8" standalone="no"?><!DOCTYPE svg PUBLIC "-//W3C//DTD SVG 1.1//EN" "http://www.w3.org/Graphics/SVG/1.1/DTD/svg11.dtd"><svg width="100%" height="100%" viewBox="0 0 204 204" version="1.1" xmlns="http://www.w3.org/2000/svg" xmlns:xlink="http://www.w3.org/1999/xlink" xml:space="preserve" xmlns:serif="http://www.serif.com/" style="fill-rule:evenodd;clip-rule:evenodd;stroke-linejoin:round;stroke-miterlimit:2;"><path d="M1.575,101.575c-0,-100 -0,-100 100,-100c100,0 100,0 100,100c0,100 0,100 -100,100c-100,0 -100,0 -100,-100" style="fill:#fff;fill-rule:nonzero;stroke:#000;stroke-width:3.15px;"/><path d="M102.464,181.575c44.183,0 80.002,-35.819 80.002,-80.002c0,-44.179 -35.819,-79.998 -80.002,-79.998c-44.183,0 -80.002,35.819 -80.002,79.998c-0,44.183 35.819,80.002 80.002,80.002Z" style="fill-rule:nonzero;"/><path d="M175.337,101.565l-5.55,-0.039m-67.318,72.917l0.043,-5.546m-72.922,-67.312l5.55,0.039m67.319,-72.924l-0.043,5.55" style="fill:none;fill-rule:nonzero;stroke:#fff;stroke-width:3.15px;stroke-linecap:round;stroke-linejoin:miter;stroke-miterlimit:4;"/><path d="M104.358,101.565l41.496,41.489l-1.897,1.887l-41.486,-41.493l1.887,-1.883Z" style="fill:#fff;fill-rule:nonzero;"/><path d="M102.464,56.245c-1.466,0 -2.673,1.206 -2.673,2.672c0.002,0.062 0.005,0.124 0.011,0.186l0,42.45c0.016,1.456 1.22,2.644 2.676,2.642c1.463,-0.002 2.667,-1.206 2.669,-2.669c-0.001,-0.062 -0.005,-0.124 -0.01,-0.185l0,-42.458c-0.017,-1.454 -1.219,-2.642 -2.673,-2.642l0,0.004Z" style="fill:#fff;fill-rule:nonzero;stroke:#fff;stroke-width:1px;"/></svg>