<?xml version="1.0" encoding="UTF-8" standalone="no"?><!DOCTYPE svg PUBLIC "-//W3C//DTD SVG 1.1//EN" "http://www.w3.org/Graphics/SVG/1.1/DTD/svg11.dtd"><svg width="100%" height="100%" viewBox="0 0 204 204" version="1.1" xmlns="http://www.w3.org/2000/svg" xmlns:xlink="http://www.w3.org/1999/xlink" xml:space="preserve" xmlns:serif="http://www.serif.com/" style="fill-rule:evenodd;clip-rule:evenodd;stroke-linejoin:round;stroke-miterlimit:2;"><path d="M1.575,101.575c0,-100 0,-100 100,-100c100,-0 100,-0 100,100c0,100 0,100 -100,100c-100,0 -100,0 -100,-100" style="fill-rule:nonzero;stroke:#000;stroke-width:3.15px;"/><path d="M2.172,146.71c3.408,-11.322 10.643,-21.141 20.49,-27.75c-0.73,-2.772 -1.205,-5.674 -1.205,-8.674c-0,-18.869 15.373,-34.164 34.335,-34.164c6.507,-0.002 12.882,1.85 18.375,5.337c8.203,-15.803 24.747,-26.694 43.855,-26.694c27.259,-0 49.358,21.991 49.358,49.113c0.014,3.044 -0.255,6.083 -0.804,9.077c17.333,5.763 30.522,20.397 34.126,38.543c-3.366,50.077 -19.717,50.077 -99.127,50.077c-81.86,0 -96.709,0 -99.403,-54.865Z" style="fill:#fff;fill-rule:nonzero;"/></svg>