<?xml version="1.0" encoding="UTF-8" standalone="no"?><!DOCTYPE svg PUBLIC "-//W3C//DTD SVG 1.1//EN" "http://www.w3.org/Graphics/SVG/1.1/DTD/svg11.dtd"><svg width="100%" height="100%" viewBox="0 0 204 204" version="1.1" xmlns="http://www.w3.org/2000/svg" xmlns:xlink="http://www.w3.org/1999/xlink" xml:space="preserve" xmlns:serif="http://www.serif.com/" style="fill-rule:evenodd;clip-rule:evenodd;stroke-linejoin:round;stroke-miterlimit:2;"><path d="M1.575,101.575c0,-100 0,-100 100,-100c100,0 100,0 100,100c0,100 0,100 -100,100c-100,0 -100,0 -100,-100" style="fill:#fff;fill-rule:nonzero;stroke:#000;stroke-width:3.15px;"/><path d="M136.385,41.575c-1.313,0.024 -2.618,0.201 -3.89,0.526l-26.842,5.447l-0.572,0.114l-24.371,4.805c-4.473,0.961 -5.343,3.456 -5.24,7.403l0.069,61.647c-0.195,4.325 -0.675,6.705 -5.652,7.506c-17.643,2.632 -21.053,8.089 -20.961,15.847c0.114,7.734 6.384,13.947 15.022,13.066c7.575,-0.835 13.227,-3.043 16.694,-10.069c1.338,-2.631 1.796,-8.123 1.464,-13.672l-0.068,-49.039c0.011,-3.432 -0.572,-5.343 3.981,-6.293l27.38,-5.515l16.247,-3.283c2.655,-0.527 3.89,0.377 3.936,3.352l0.069,36.636c-0.206,4.348 -0.63,6.316 -5.607,7.117c-17.643,2.631 -21.109,8.489 -21.006,16.247c0.114,7.746 6.475,13.547 15.125,12.677c7.575,-0.847 13.021,-2.803 16.488,-9.817c1.35,-2.632 1.453,-7.895 1.567,-13.547l-0.046,-74.999c-0,-4.222 -0.72,-6.099 -3.775,-6.156l-0.012,0Z" style="fill-rule:nonzero;"/></svg>