<?xml version="1.0" encoding="UTF-8" standalone="no"?><!DOCTYPE svg PUBLIC "-//W3C//DTD SVG 1.1//EN" "http://www.w3.org/Graphics/SVG/1.1/DTD/svg11.dtd"><svg width="100%" height="100%" viewBox="0 0 204 204" version="1.1" xmlns="http://www.w3.org/2000/svg" xmlns:xlink="http://www.w3.org/1999/xlink" xml:space="preserve" xmlns:serif="http://www.serif.com/" style="fill-rule:evenodd;clip-rule:evenodd;stroke-linejoin:round;stroke-miterlimit:2;"><path d="M1.575,101.575c-0,-100 -0,-100 100,-100c100,0 100,0 100,100c0,100 0,100 -100,100c-100,0 -100,0 -100,-100" style="fill:#fff;fill-rule:nonzero;stroke:#000;stroke-width:3.15px;"/><path d="M31.575,64.625l8.537,-4.789c9.771,0.34 15.745,-3.221 17.4,-11.219c20.958,-15.341 44.487,-15.969 70.317,-3.437l-0.306,3.437c-21.331,-3.937 -39.144,-1.59 -40.735,10c6.404,12.49 13.828,24.022 22.15,34.712c18.128,21.816 36.012,47.798 53.807,75.288c-6.623,6.665 -14.737,10.791 -24.001,12.958c-16.411,-26.346 -31.227,-53.301 -42.899,-81.458l-15.5,-24c-2.382,-4.388 -5.337,-8.226 -12,-8.5c-9.468,-3.217 -14.219,0.277 -17,7.86l-10,5.526c-5.899,-4.62 -8.845,-10.178 -9.77,-16.378Z"/></svg>