<?xml version="1.0" encoding="UTF-8" standalone="no"?><!DOCTYPE svg PUBLIC "-//W3C//DTD SVG 1.1//EN" "http://www.w3.org/Graphics/SVG/1.1/DTD/svg11.dtd"><svg width="100%" height="100%" viewBox="0 0 1404 1872" version="1.1" xmlns="http://www.w3.org/2000/svg" xmlns:xlink="http://www.w3.org/1999/xlink" xml:space="preserve" xmlns:serif="http://www.serif.com/" style="fill-rule:evenodd;clip-rule:evenodd;stroke-linejoin:round;stroke-miterlimit:2;"><g id="Row4"><g><path d="M150,1450c0,-100 0,-100 100,-100c100,0 100,0 100,100c0,100 0,100 -100,100c-100,0 -100,0 -100,-100" style="fill:#fff;fill-rule:nonzero;stroke:#000;stroke-width:3.15px;"/><path d="M319.553,1442.22c-0.211,-1.966 -2.495,-3.447 -4.49,-3.447c-6.411,-0 -12.096,-3.78 -14.485,-9.586c-2.423,-6.009 -0.857,-12.93 3.916,-17.312c1.504,-1.37 1.69,-3.7 0.423,-5.292c-3.261,-4.139 -6.984,-7.893 -11.097,-11.188c-1.599,-1.278 -3.946,-1.092 -5.322,0.423c-4.173,4.627 -11.673,6.35 -17.463,3.931c-6.028,-2.556 -9.823,-8.659 -9.45,-15.195c0.117,-2.043 -1.399,-3.847 -3.432,-4.082c-5.233,-0.614 -10.518,-0.635 -15.755,-0.061c-2.018,0.219 -3.544,1.978 -3.477,4.007c0.241,6.501 -3.629,12.504 -9.571,14.938c-6.031,2.258 -12.861,0.709 -17.327,-3.931c-1.365,-1.506 -3.69,-1.705 -5.292,-0.454c-4.192,3.287 -7.997,7.041 -11.34,11.189c-1.274,1.602 -1.08,3.949 0.439,5.322c4.868,4.415 6.441,11.43 3.916,17.478c-2.419,5.746 -8.392,9.45 -15.241,9.45c-2.043,-0.131 -3.846,1.408 -4.037,3.447c-0.614,5.289 -0.624,10.63 -0.03,15.921c0.212,1.966 2.57,3.432 4.581,3.432c6.109,-0.151 11.945,3.629 14.409,9.601c2.424,6.012 0.851,12.936 -3.931,17.312c-1.49,1.372 -1.669,3.691 -0.408,5.277c3.251,4.142 6.985,7.907 11.067,11.188c1.618,1.3 3.932,1.119 5.338,-0.408c4.188,-4.642 11.687,-6.35 17.448,-3.931c6.047,2.525 9.827,8.618 9.48,15.195c-0.118,2.043 1.399,3.847 3.432,4.082c5.232,0.617 10.517,0.637 15.754,0.061c2.018,-0.227 3.538,-1.993 3.463,-4.022c-0.228,-6.467 3.597,-12.433 9.57,-14.923c6.035,-2.273 12.878,-0.722 17.343,3.931c1.372,1.492 3.685,1.691 5.291,0.454c4.185,-3.286 7.979,-7.04 11.31,-11.189c1.289,-1.592 1.109,-3.945 -0.408,-5.322c-4.864,-4.391 -6.444,-11.411 -3.931,-17.463c2.388,-5.685 8.134,-9.495 14.333,-9.495l0.862,-0c2.036,0.11 3.832,-1.394 4.082,-3.417c0.62,-5.288 0.636,-10.63 0.045,-15.921l-0.015,0Zm-69.444,31.282c-12.806,-0.016 -23.336,-10.553 -23.345,-23.359c0,-12.867 10.478,-23.345 23.345,-23.345c12.882,0 23.36,10.478 23.36,23.345c-0,12.882 -10.478,23.359 -23.36,23.359Z"/></g><g><path d="M1050,1450c0,-100 0,-100 100,-100c100,0 100,0 100,100c0,100 0,100 -100,100c-100,0 -100,0 -100,-100" style="fill:#fff;fill-rule:nonzero;stroke:#000;stroke-width:3.15px;"/><path d="M1149.99,1390.01c-32.907,0.006 -59.983,25.11 -59.991,55.62c0.017,14.053 5.777,27.591 16.112,37.871l-0.034,-0.013c6,7.477 18.605,8.578 6.881,22.232c-3.426,4.2 -2.275,4.715 1.837,4.019c12.34,-3.059 10.964,-9.699 21.698,-9.957c4.426,0.967 8.956,1.464 13.503,1.482c32.917,-0 60.003,-25.114 60.003,-55.634c0,-30.519 -27.086,-55.633 -60.003,-55.633l-0.006,0.013Z" style="fill-rule:nonzero;"/></g><g><path d="M750,1450c0,-100 0,-100 100,-100c100,0 100,0 100,100c0,100 0,100 -100,100c-100,0 -100,0 -100,-100" style="fill-rule:nonzero;stroke:#000;stroke-width:3.15px;"/><path d="M836.537,1378.71c-0.483,0.076 -0.871,0.786 -1.382,2.31c-0.994,2.934 -1.231,7.146 -2.537,46.504c-0.691,20.777 -2.187,39.386 -3.484,43.201c-1.675,4.922 -4.467,3.388 -11.481,-6.342c-3.597,-4.998 -7.686,-10.1 -9.068,-11.312c-2.386,-2.101 -2.651,-2.12 -5.074,-0.34c-1.41,1.031 -3.237,3.72 -4.07,5.991c-2.149,5.841 -5.102,9.002 -9.2,9.863c-1.95,0.417 -12.022,0.095 -22.377,-0.7c0,0 -14.973,-1.707 -17.966,-1.372c-1.119,0.125 -1.015,2.912 0.01,3.379c1.57,0.714 9.409,0.908 9.409,0.908c5.651,0.549 15.694,1.004 22.329,1.004c14.066,-0 16.47,-1.108 19.594,-9.011c1.06,-2.698 2.366,-5.216 2.915,-5.585c2.073,-1.439 4.95,0.946 10.847,8.992c3.361,4.582 7.223,9.153 8.576,10.147c3.304,2.423 6.418,1.165 8.065,-3.246c1.675,-4.497 3.341,-23.286 4.032,-45.577c0.606,-19.272 1.117,-23.759 2.471,-21.316c0.785,1.419 1.552,9.37 2.508,25.803c0.189,3.388 1.079,15.239 1.959,26.342c2.973,37.257 4.033,43.901 6.872,42.851c1.496,-0.559 3.465,-9.788 3.597,-16.821c0.048,-2.953 0.739,-7.118 1.543,-9.257c1.647,-4.411 2.442,-4.581 12.182,-2.574c8.832,1.826 10.696,0.681 14.502,-8.879c5.092,-12.826 5.291,-13.138 8.235,-13.526c2.29,-0.294 3.653,0.757 7.951,6.171c15.807,19.849 17.587,20.635 26.153,11.558c2.915,-3.077 5.736,-5.604 6.266,-5.604c0.53,-0 3.332,2.272 6.238,5.045c3.947,3.597 7.127,5.064 11.529,5.585c1.272,-0 2.319,-1.047 2.319,-2.319c-0,-1.272 -1.047,-2.319 -2.319,-2.319c-4.193,1.637 -8.159,-2.272 -10.317,-4.307c-7.1,-6.787 -9.447,-6.711 -15.429,0.549c-6.749,8.216 -7.071,8.093 -19.689,-7.667c-12.949,-16.177 -15.949,-15.969 -22.007,1.514c-1.278,3.692 -3.389,7.951 -4.667,9.466c-2.262,2.669 -2.527,2.716 -8.168,1.41c-8.548,-1.988 -11.842,-1.723 -14.189,1.089c-1.114,1.338 -1.994,2.855 -2.603,4.486c-0.739,2.594 -2.149,2.632 -2.84,0.086c-0.795,-2.954 -2.489,-19.783 -3.067,-30.555c-0.729,-13.65 -4.411,-57.172 -5.149,-60.769c-0.341,-1.685 -1.23,-3.635 -1.988,-4.335c-0.407,-0.379 -0.738,-0.568 -1.031,-0.521Z" style="fill:#fff;fill-rule:nonzero;"/></g><g><path d="M450,1450c0,-100 0,-100 100,-100c100,0 100,0 100,100c0,100 0,100 -100,100c-100,0 -100,0 -100,-100" style="fill-rule:nonzero;stroke:#000;stroke-width:3.15px;"/><path d="M470,1445l0,10" style="fill:none;stroke:#fff;stroke-width:3.15px;stroke-linecap:round;stroke-miterlimit:1.5;"/><path d="M480,1440l0,20" style="fill:none;stroke:#fff;stroke-width:3.15px;stroke-linecap:round;stroke-miterlimit:1.5;"/><path d="M490,1435l0,30" style="fill:none;stroke:#fff;stroke-width:3.15px;stroke-linecap:round;stroke-miterlimit:1.5;"/><path d="M500,1430l0,40" style="fill:none;stroke:#fff;stroke-width:3.15px;stroke-linecap:round;stroke-miterlimit:1.5;"/><path d="M510,1420l0,60" style="fill:none;stroke:#fff;stroke-width:3.15px;stroke-linecap:round;stroke-miterlimit:1.5;"/><path d="M520,1395l0,110" style="fill:none;stroke:#fff;stroke-width:3.15px;stroke-linecap:round;stroke-miterlimit:1.5;"/><path d="M530,1405l0,90" style="fill:none;stroke:#fff;stroke-width:3.15px;stroke-linecap:round;stroke-miterlimit:1.5;"/><path d="M540,1430l0,40" style="fill:none;stroke:#fff;stroke-width:3.15px;stroke-linecap:round;stroke-miterlimit:1.5;"/><path d="M550,1430l0,40" style="fill:none;stroke:#fff;stroke-width:3.15px;stroke-linecap:round;stroke-miterlimit:1.5;"/><path d="M560,1430l0,40" style="fill:none;stroke:#fff;stroke-width:3.15px;stroke-linecap:round;stroke-miterlimit:1.5;"/><path d="M570,1440l0,20" style="fill:none;stroke:#fff;stroke-width:3.15px;stroke-linecap:round;stroke-miterlimit:1.5;"/><path d="M580,1440l0,20" style="fill:none;stroke:#fff;stroke-width:3.15px;stroke-linecap:round;stroke-miterlimit:1.5;"/><path d="M590,1445l0,10" style="fill:none;stroke:#fff;stroke-width:3.15px;stroke-linecap:round;stroke-miterlimit:1.5;"/><path d="M600,1445l0,10" style="fill:none;stroke:#fff;stroke-width:3.15px;stroke-linecap:round;stroke-miterlimit:1.5;"/><path d="M610,1440l0,20" style="fill:none;stroke:#fff;stroke-width:3.15px;stroke-linecap:round;stroke-miterlimit:1.5;"/><path d="M620,1445l0,10" style="fill:none;stroke:#fff;stroke-width:3.15px;stroke-linecap:round;stroke-miterlimit:1.5;"/><path d="M630,1445l0,10" style="fill:none;stroke:#fff;stroke-width:3.15px;stroke-linecap:round;stroke-miterlimit:1.5;"/></g></g><g id="Row3"><g><path d="M150,1100c0,-100 0,-100 100,-100c100,0 100,0 100,100c0,100 0,100 -100,100c-100,0 -100,0 -100,-100" style="fill:#fff;fill-rule:nonzero;stroke:#000;stroke-width:3.15px;"/><path d="M250.889,1180c44.183,-0 80.002,-35.819 80.002,-80.002c-0,-44.179 -35.819,-79.998 -80.002,-79.998c-44.183,0 -80.002,35.819 -80.002,79.998c0,44.183 35.819,80.002 80.002,80.002Z" style="fill-rule:nonzero;"/><path d="M323.762,1099.99l-5.55,-0.039m-67.318,72.917l0.043,-5.546m-72.922,-67.312l5.55,0.039m67.319,-72.924l-0.043,5.55" style="fill:none;fill-rule:nonzero;stroke:#fff;stroke-width:3.15px;stroke-linecap:round;stroke-linejoin:miter;stroke-miterlimit:4;"/><path d="M252.783,1099.99l41.496,41.489l-1.897,1.887l-41.486,-41.493l1.887,-1.883Z" style="fill:#fff;fill-rule:nonzero;"/><path d="M250.889,1054.67c-1.466,-0 -2.673,1.206 -2.673,2.672c0.002,0.062 0.005,0.124 0.011,0.186l-0,42.45c0.016,1.456 1.22,2.644 2.676,2.642c1.463,-0.002 2.667,-1.206 2.669,-2.669c-0.001,-0.062 -0.005,-0.124 -0.01,-0.185l-0,-42.458c-0.017,-1.454 -1.219,-2.642 -2.673,-2.642l-0,0.004Z" style="fill:#fff;fill-rule:nonzero;stroke:#fff;stroke-width:1px;"/></g><g><path d="M1050,1100c0,-100 0,-100 100,-100c100,0 100,0 100,100c0,100 0,100 -100,100c-100,0 -100,0 -100,-100" style="fill:#fff;fill-rule:nonzero;stroke:#000;stroke-width:3.15px;"/><path d="M1184.81,1040c-1.313,0.024 -2.618,0.201 -3.89,0.526l-26.842,5.447l-0.572,0.114l-24.371,4.805c-4.473,0.961 -5.343,3.456 -5.24,7.403l0.069,61.647c-0.195,4.325 -0.675,6.705 -5.652,7.506c-17.643,2.632 -21.053,8.089 -20.961,15.847c0.114,7.734 6.384,13.947 15.022,13.066c7.575,-0.835 13.227,-3.043 16.694,-10.069c1.338,-2.631 1.796,-8.123 1.464,-13.672l-0.068,-49.039c0.011,-3.432 -0.572,-5.343 3.981,-6.293l27.38,-5.515l16.247,-3.283c2.655,-0.527 3.89,0.377 3.936,3.352l0.069,36.636c-0.206,4.348 -0.63,6.316 -5.607,7.117c-17.643,2.631 -21.109,8.489 -21.006,16.247c0.114,7.746 6.475,13.547 15.125,12.677c7.575,-0.847 13.021,-2.803 16.488,-9.817c1.35,-2.632 1.453,-7.895 1.567,-13.547l-0.046,-74.999c0,-4.222 -0.72,-6.099 -3.775,-6.156l-0.012,-0Z" style="fill-rule:nonzero;"/></g><g><path d="M750,1100c0,-100 0,-100 100,-100c100,0 100,0 100,100c0,100 0,100 -100,100c-100,0 -100,0 -100,-100" style="fill-rule:nonzero;stroke:#000;stroke-width:3.15px;"/><path d="M849.996,1000l3.248,0l0,84.806c0,4.079 -3.768,7.049 -7.261,1.884l-17.028,-33.921c-1.144,-2.554 -3.263,-2.413 -4.754,0.17l-17.275,34.414c-3.345,5.629 -6.756,1.074 -6.926,-2.547l-0,-83.928c12.995,-0.878 29.367,-0.878 49.996,-0.878Z" style="fill:#fff;fill-rule:nonzero;"/><path d="M913.287,1013.32c26.713,6.658 26.713,26.648 26.713,86.678c0,60.03 0,80.02 -26.713,86.678c11.713,-12.759 11.713,-37.748 11.713,-86.678c0,-48.93 -0,-73.919 -11.713,-86.678Z" style="fill:#fff;fill-rule:nonzero;"/></g><g><path d="M450,1100c0,-100 0,-100 100,-100c100,0 100,0 100,100c0,100 0,100 -100,100c-100,0 -100,0 -100,-100" style="fill:#fff;fill-rule:nonzero;stroke:#000;stroke-width:3.15px;"/><path d="M480,1063.05l8.537,-4.789c9.771,0.34 15.745,-3.221 17.4,-11.219c20.958,-15.341 44.487,-15.969 70.317,-3.437l-0.306,3.437c-21.331,-3.937 -39.144,-1.59 -40.735,10c6.404,12.49 13.828,24.022 22.15,34.712c18.128,21.816 36.012,47.798 53.807,75.288c-6.623,6.665 -14.737,10.791 -24.001,12.958c-16.411,-26.346 -31.227,-53.301 -42.899,-81.458l-15.5,-24c-2.382,-4.388 -5.337,-8.226 -12,-8.5c-9.468,-3.217 -14.219,0.277 -17,7.86l-10,5.526c-5.899,-4.62 -8.845,-10.178 -9.77,-16.378Z"/></g></g><g id="Row2"><g><path d="M150,750c0,-100 0,-100 100,-100c100,0 100,0 100,100c0,100 0,100 -100,100c-100,0 -100,0 -100,-100" style="fill:#fff;fill-rule:nonzero;stroke:#000;stroke-width:3.15px;"/><path d="M238.462,738.462l23.076,23.076l-61.538,38.462l38.462,-61.538Z" style="fill-rule:nonzero;stroke:#000;stroke-width:3.15px;"/><path d="M238.462,738.462l61.538,-38.462l-38.462,61.538l-23.076,-23.076Z" style="fill:#fff;fill-rule:nonzero;stroke:#000;stroke-width:3.15px;"/></g><g><path d="M1050,750c0,-100 0,-100 100,-100c100,0 100,0 100,100c0,100 0,100 -100,100c-100,0 -100,0 -100,-100" style="fill:#fff;fill-rule:nonzero;stroke:#000;stroke-width:3.15px;"/><path d="M1146.27,698.771c-19.052,-4.56 -38.634,6.516 -44.542,25.193c-6.197,19.617 4.821,40.862 24.426,47.096c10.724,3.398 22.427,1.804 31.85,-4.34l32.796,32.789c1.006,1.066 2.408,1.67 3.873,1.67c2.923,0 5.328,-2.405 5.328,-5.328c0,-1.466 -0.606,-2.87 -1.673,-3.876l-32.308,-32.308c3.26,-3.789 5.73,-8.191 7.266,-12.947l0.086,-0.262c6.119,-19.64 -4.981,-40.84 -24.609,-46.999c-0.823,-0.258 -1.654,-0.488 -2.493,-0.688Zm-2.359,9.862c0.615,0.148 1.225,0.317 1.829,0.506c14.32,4.496 22.416,19.967 17.946,34.295l-0.061,0.189c-4.572,14.301 -20.092,22.315 -34.399,17.763c-14.306,-4.546 -22.347,-20.048 -17.824,-34.362c4.306,-13.636 18.603,-21.724 32.509,-18.391Z" style="fill-rule:nonzero;"/></g><g><path d="M750,750c0,-100 0,-100 100,-100c100,0 100,0 100,100c0,100 0,100 -100,100c-100,0 -100,0 -100,-100" style="fill:#fff;fill-rule:nonzero;stroke:#000;stroke-width:3.15px;"/><path d="M850,691.767l-0,43.352l43.352,-0l-43.352,74.881l-0,-43.352l-43.352,-0l43.352,-74.881Z" style="fill-rule:nonzero;"/></g><g><path d="M450,750c0,-100 0,-100 100,-100c100,0 100,0 100,100c0,100 0,100 -100,100c-100,0 -100,0 -100,-100" style="fill-rule:nonzero;stroke:#000;stroke-width:3.15px;"/><circle cx="550" cy="750" r="64.99" style="fill:#fff;"/><circle cx="550" cy="750" r="20"/></g></g><g id="Row1"><g><path d="M150,400c0,-100 0,-100 100,-100c100,0 100,0 100,100c0,100 0,100 -100,100c-100,0 -100,0 -100,-100" style="fill-rule:nonzero;stroke:#000;stroke-width:3.15px;"/><path d="M194.095,373.252l-0,-13.252l43.109,24.547l-0,12.53l-43.109,24.547l-0,-13.275l32.465,-17.467l-32.465,-17.63Zm61.601,54.428l49.304,-0l0,12.32l-49.304,0l-0,-12.32Z" style="fill:#fff;fill-rule:nonzero;"/></g><g><path d="M1050,400c0,-100 0,-100 100,-100c100,0 100,0 100,100c0,100 0,100 -100,100c-100,0 -100,0 -100,-100" style="fill:#fff;fill-rule:nonzero;stroke:#000;stroke-width:3.15px;"/><g><path d="M1125.62,440.185l64.385,-120.461" style="fill:none;fill-rule:nonzero;stroke:#000;stroke-width:20.77px;stroke-linecap:round;stroke-linejoin:miter;stroke-miterlimit:4;"/><path d="M1127.69,404.878c-56.077,14.538 -14.538,66.461 -45.692,72.692c41.538,14.538 83.077,-6.231 72.692,-58.154l-27,-14.538Z" style="fill-rule:nonzero;"/><path d="M1160.92,396.57l-6.231,22.846l-27,-14.538l14.539,-18.693l18.692,10.385Z" style="fill:#fff;fill-rule:nonzero;stroke:#000;stroke-width:1px;"/></g></g><g><path d="M750,400c0,-100 0,-100 100,-100c100,0 100,0 100,100c0,100 0,100 -100,100c-100,0 -100,0 -100,-100" style="fill-rule:nonzero;stroke:#000;stroke-width:3.15px;"/><path d="M750.597,445.135c3.408,-11.322 10.643,-21.141 20.49,-27.75c-0.73,-2.772 -1.205,-5.674 -1.205,-8.674c-0,-18.869 15.373,-34.164 34.335,-34.164c6.507,-0.002 12.882,1.85 18.375,5.337c8.203,-15.803 24.747,-26.694 43.855,-26.694c27.259,-0 49.358,21.991 49.358,49.113c0.014,3.044 -0.255,6.083 -0.804,9.077c17.333,5.763 30.522,20.397 34.126,38.543c-3.366,50.077 -19.717,50.077 -99.127,50.077c-81.86,0 -96.709,0 -99.403,-54.865Z" style="fill:#fff;fill-rule:nonzero;"/></g><g><path d="M450,400c0,-100 0,-100 100,-100c100,0 100,0 100,100c0,100 0,100 -100,100c-100,0 -100,0 -100,-100" style="fill:#fff;fill-rule:nonzero;stroke:#000;stroke-width:3.15px;"/><path d="M623,416c0,-5.519 -4.481,-10 -10,-10l-48,0c-5.519,0 -10,4.481 -10,10l0,48c0,5.519 4.481,10 10,10l48,0c5.519,0 10,-4.481 10,-10l0,-48Z"/><path d="M495,360l28,0m-14,-14l0,28m66,-14l28,0m-106,92l24,-24m-24,0l24,24" style="fill:none;fill-rule:nonzero;stroke:#000;stroke-width:8px;stroke-linejoin:miter;stroke-miterlimit:4;"/><path d="M575,432l28,0m-28,16l28,0" style="fill:none;fill-rule:nonzero;stroke:#fff;stroke-width:8px;stroke-linejoin:miter;stroke-miterlimit:4;"/></g></g></svg>