<?xml version="1.0" encoding="UTF-8" standalone="no"?><!DOCTYPE svg PUBLIC "-//W3C//DTD SVG 1.1//EN" "http://www.w3.org/Graphics/SVG/1.1/DTD/svg11.dtd"><svg width="100%" height="100%" viewBox="0 0 204 204" version="1.1" xmlns="http://www.w3.org/2000/svg" xmlns:xlink="http://www.w3.org/1999/xlink" xml:space="preserve" xmlns:serif="http://www.serif.com/" style="fill-rule:evenodd;clip-rule:evenodd;stroke-linejoin:round;stroke-miterlimit:2;"><path d="M1.575,101.575c0,-100 0,-100 100,-100c100,0 100,0 100,100c0,100 0,100 -100,100c-100,0 -100,0 -100,-100" style="fill-rule:nonzero;stroke:#000;stroke-width:3.15px;"/><path d="M101.571,1.575l3.248,0l0,84.806c0,4.079 -3.768,7.049 -7.261,1.884l-17.028,-33.921c-1.144,-2.554 -3.263,-2.413 -4.754,0.17l-17.275,34.414c-3.345,5.629 -6.756,1.074 -6.926,-2.547l0,-83.928c12.995,-0.878 29.367,-0.878 49.996,-0.878Z" style="fill:#fff;fill-rule:nonzero;"/><path d="M164.862,14.895c26.713,6.658 26.713,26.648 26.713,86.678c0,60.03 0,80.02 -26.713,86.678c11.713,-12.759 11.713,-37.748 11.713,-86.678c0,-48.93 0,-73.919 -11.713,-86.678Z" style="fill:#fff;fill-rule:nonzero;"/></svg>