<?xml version="1.0" encoding="UTF-8" standalone="no"?><!DOCTYPE svg PUBLIC "-//W3C//DTD SVG 1.1//EN" "http://www.w3.org/Graphics/SVG/1.1/DTD/svg11.dtd"><svg width="100%" height="100%" viewBox="0 0 204 204" version="1.1" xmlns="http://www.w3.org/2000/svg" xmlns:xlink="http://www.w3.org/1999/xlink" xml:space="preserve" xmlns:serif="http://www.serif.com/" style="fill-rule:evenodd;clip-rule:evenodd;stroke-linejoin:round;stroke-miterlimit:2;"><path d="M1.575,101.575c-0,-100 -0,-100 100,-100c100,0 100,0 100,100c0,100 0,100 -100,100c-100,0 -100,0 -100,-100" style="fill-rule:nonzero;stroke:#000;stroke-width:3.15px;"/><path d="M21.575,96.575l-0,10" style="fill:none;stroke:#fff;stroke-width:3.15px;stroke-linecap:round;stroke-miterlimit:1.5;"/><path d="M31.575,91.575l-0,20" style="fill:none;stroke:#fff;stroke-width:3.15px;stroke-linecap:round;stroke-miterlimit:1.5;"/><path d="M41.575,86.575l-0,30" style="fill:none;stroke:#fff;stroke-width:3.15px;stroke-linecap:round;stroke-miterlimit:1.5;"/><path d="M51.575,81.575l-0,40" style="fill:none;stroke:#fff;stroke-width:3.15px;stroke-linecap:round;stroke-miterlimit:1.5;"/><path d="M61.575,71.575l-0,60" style="fill:none;stroke:#fff;stroke-width:3.15px;stroke-linecap:round;stroke-miterlimit:1.5;"/><path d="M71.575,46.575l-0,110" style="fill:none;stroke:#fff;stroke-width:3.15px;stroke-linecap:round;stroke-miterlimit:1.5;"/><path d="M81.575,56.575l-0,90" style="fill:none;stroke:#fff;stroke-width:3.15px;stroke-linecap:round;stroke-miterlimit:1.5;"/><path d="M91.575,81.575l-0,40" style="fill:none;stroke:#fff;stroke-width:3.15px;stroke-linecap:round;stroke-miterlimit:1.5;"/><path d="M101.575,81.575l-0,40" style="fill:none;stroke:#fff;stroke-width:3.15px;stroke-linecap:round;stroke-miterlimit:1.5;"/><path d="M111.575,81.575l-0,40" style="fill:none;stroke:#fff;stroke-width:3.15px;stroke-linecap:round;stroke-miterlimit:1.5;"/><path d="M121.575,91.575l-0,20" style="fill:none;stroke:#fff;stroke-width:3.15px;stroke-linecap:round;stroke-miterlimit:1.5;"/><path d="M131.575,91.575l0,20" style="fill:none;stroke:#fff;stroke-width:3.15px;stroke-linecap:round;stroke-miterlimit:1.5;"/><path d="M141.575,96.575l-0,10" style="fill:none;stroke:#fff;stroke-width:3.15px;stroke-linecap:round;stroke-miterlimit:1.5;"/><path d="M151.575,96.575l-0,10" style="fill:none;stroke:#fff;stroke-width:3.15px;stroke-linecap:round;stroke-miterlimit:1.5;"/><path d="M161.575,91.575l-0,20" style="fill:none;stroke:#fff;stroke-width:3.15px;stroke-linecap:round;stroke-miterlimit:1.5;"/><path d="M171.575,96.575l-0,10" style="fill:none;stroke:#fff;stroke-width:3.15px;stroke-linecap:round;stroke-miterlimit:1.5;"/><path d="M181.575,96.575l-0,10" style="fill:none;stroke:#fff;stroke-width:3.15px;stroke-linecap:round;stroke-miterlimit:1.5;"/></svg>