<?xml version="1.0" encoding="UTF-8" standalone="no"?><!DOCTYPE svg PUBLIC "-//W3C//DTD SVG 1.1//EN" "http://www.w3.org/Graphics/SVG/1.1/DTD/svg11.dtd"><svg width="100%" height="100%" viewBox="0 0 204 204" version="1.1" xmlns="http://www.w3.org/2000/svg" xmlns:xlink="http://www.w3.org/1999/xlink" xml:space="preserve" xmlns:serif="http://www.serif.com/" style="fill-rule:evenodd;clip-rule:evenodd;stroke-linejoin:round;stroke-miterlimit:2;"><path d="M1.575,101.575c0,-100 0,-100 100,-100c100,0 100,0 100,100c0,100 0,100 -100,100c-100,0 -100,0 -100,-100" style="fill:#fff;fill-rule:nonzero;stroke:#000;stroke-width:3.15px;"/><path d="M97.845,50.346c-19.052,-4.56 -38.634,6.516 -44.542,25.193c-6.197,19.617 4.821,40.862 24.426,47.096c10.724,3.398 22.427,1.804 31.85,-4.34l32.796,32.789c1.006,1.066 2.408,1.67 3.873,1.67c2.923,-0 5.328,-2.405 5.328,-5.328c0,-1.466 -0.606,-2.87 -1.673,-3.876l-32.308,-32.308c3.26,-3.789 5.73,-8.191 7.266,-12.947l0.086,-0.262c6.119,-19.64 -4.981,-40.84 -24.609,-46.999c-0.823,-0.258 -1.654,-0.488 -2.493,-0.688Zm-2.359,9.862c0.615,0.148 1.225,0.317 1.829,0.506c14.32,4.496 22.416,19.967 17.946,34.295l-0.061,0.189c-4.572,14.301 -20.092,22.315 -34.399,17.763c-14.306,-4.546 -22.347,-20.048 -17.824,-34.362c4.306,-13.636 18.603,-21.724 32.509,-18.391Z" style="fill-rule:nonzero;"/></svg>