<?xml version="1.0" encoding="UTF-8" standalone="no"?><!DOCTYPE svg PUBLIC "-//W3C//DTD SVG 1.1//EN" "http://www.w3.org/Graphics/SVG/1.1/DTD/svg11.dtd"><svg width="100%" height="100%" viewBox="0 0 204 204" version="1.1" xmlns="http://www.w3.org/2000/svg" xmlns:xlink="http://www.w3.org/1999/xlink" xml:space="preserve" xmlns:serif="http://www.serif.com/" style="fill-rule:evenodd;clip-rule:evenodd;stroke-linejoin:round;stroke-miterlimit:2;"><path d="M1.575,101.575c-0,-100 -0,-100 100,-100c100,0 100,0 100,100c0,100 0,100 -100,100c-100,0 -100,0 -100,-100" style="fill:#fff;fill-rule:nonzero;stroke:#000;stroke-width:3.15px;"/><path d="M171.128,93.795c-0.211,-1.966 -2.495,-3.447 -4.49,-3.447c-6.411,0 -12.096,-3.78 -14.485,-9.586c-2.423,-6.009 -0.857,-12.93 3.916,-17.312c1.504,-1.37 1.69,-3.7 0.423,-5.292c-3.261,-4.139 -6.984,-7.893 -11.097,-11.188c-1.599,-1.278 -3.946,-1.092 -5.322,0.423c-4.173,4.627 -11.673,6.35 -17.463,3.931c-6.028,-2.556 -9.823,-8.659 -9.45,-15.195c0.117,-2.043 -1.399,-3.847 -3.432,-4.082c-5.233,-0.614 -10.518,-0.635 -15.755,-0.061c-2.018,0.219 -3.544,1.978 -3.477,4.007c0.241,6.501 -3.629,12.504 -9.571,14.938c-6.031,2.258 -12.861,0.709 -17.327,-3.931c-1.365,-1.506 -3.69,-1.705 -5.292,-0.454c-4.192,3.287 -7.997,7.041 -11.34,11.189c-1.274,1.602 -1.08,3.949 0.439,5.322c4.868,4.415 6.441,11.43 3.916,17.478c-2.419,5.746 -8.392,9.45 -15.241,9.45c-2.043,-0.131 -3.846,1.408 -4.037,3.447c-0.614,5.289 -0.624,10.63 -0.03,15.921c0.212,1.966 2.57,3.432 4.581,3.432c6.109,-0.151 11.945,3.629 14.409,9.601c2.424,6.012 0.851,12.936 -3.931,17.312c-1.49,1.372 -1.669,3.691 -0.408,5.277c3.251,4.142 6.985,7.907 11.067,11.188c1.618,1.3 3.932,1.119 5.338,-0.408c4.188,-4.642 11.687,-6.35 17.448,-3.931c6.047,2.525 9.827,8.618 9.48,15.195c-0.118,2.043 1.399,3.847 3.432,4.082c5.232,0.617 10.517,0.637 15.754,0.061c2.018,-0.227 3.538,-1.993 3.463,-4.022c-0.228,-6.467 3.597,-12.433 9.57,-14.923c6.035,-2.273 12.878,-0.722 17.343,3.931c1.372,1.492 3.685,1.691 5.291,0.454c4.185,-3.286 7.979,-7.04 11.31,-11.189c1.289,-1.592 1.109,-3.945 -0.408,-5.322c-4.864,-4.391 -6.444,-11.411 -3.931,-17.463c2.388,-5.685 8.134,-9.495 14.333,-9.495l0.862,0c2.036,0.11 3.832,-1.394 4.082,-3.417c0.62,-5.288 0.636,-10.63 0.045,-15.921l-0.015,0Zm-69.444,31.282c-12.806,-0.016 -23.336,-10.553 -23.345,-23.359c-0,-12.867 10.478,-23.345 23.345,-23.345c12.882,0 23.36,10.478 23.36,23.345c0,12.882 -10.478,23.359 -23.36,23.359Z"/></svg>